<?xml version="1.0" encoding="utf-8" standalone="no"?>
<!DOCTYPE svg PUBLIC "-//W3C//DTD SVG 1.1//EN"
  "http://www.w3.org/Graphics/SVG/1.1/DTD/svg11.dtd">
<svg xmlns:xlink="http://www.w3.org/1999/xlink" width="705.6pt" height="360pt" viewBox="0 0 705.6 360" xmlns="http://www.w3.org/2000/svg" version="1.1">
 <metadata>
  <rdf:RDF xmlns:dc="http://purl.org/dc/elements/1.1/" xmlns:cc="http://creativecommons.org/ns#" xmlns:rdf="http://www.w3.org/1999/02/22-rdf-syntax-ns#">
   <cc:Work>
    <dc:type rdf:resource="http://purl.org/dc/dcmitype/StillImage"/>
    <dc:date>2026-09-20T14:48:48.570403</dc:date>
    <dc:format>image/svg+xml</dc:format>
    <dc:creator>
     <cc:Agent>
      <dc:title>Matplotlib v3.10.8, https://matplotlib.org/</dc:title>
     </cc:Agent>
    </dc:creator>
   </cc:Work>
  </rdf:RDF>
 </metadata>
 <defs>
  <style type="text/css">*{stroke-linejoin: round; stroke-linecap: butt}</style>
 </defs>
 <g id="figure_1">
  <g id="patch_1">
   <path d="M 0 360 
L 705.6 360 
L 705.6 0 
L 0 0 
z
" style="fill: #ffffff"/>
  </g>
  <g id="axes_1">
   <g id="patch_2">
    <path d="M 84.672 295.2 
L 684.432 295.2 
L 684.432 54 
L 84.672 54 
z
" style="fill: #ffffff"/>
   </g>
   <g id="matplotlib.axis_1">
    <g id="xtick_1">
     <g id="line2d_1">
      <path d="M 84.672 295.2 
L 84.672 54 
" clip-path="url(#p87c5aa9ca0)" style="fill: none; stroke: #e7ecef; stroke-width: 0.7; stroke-linecap: square"/>
     </g>
     <g id="line2d_2">
      <defs>
       <path id="mea6740bc42" d="M 0 0 
L 0 3.5 
" style="stroke: #52616d; stroke-width: 0.8"/>
      </defs>
      <g>
       <use xlink:href="#mea6740bc42" x="84.672" y="295.2" style="fill: #52616d; stroke: #52616d; stroke-width: 0.8"/>
      </g>
     </g>
     <g id="text_1">
      <text style="font-size: 11px; font-family: 'DejaVu Sans'; text-anchor: middle; fill: #52616d" x="84.672" y="310.558281" transform="rotate(-0 84.672 310.558281)">0%</text>
     </g>
    </g>
    <g id="xtick_2">
     <g id="line2d_3">
      <path d="M 182.993311 295.2 
L 182.993311 54 
" clip-path="url(#p87c5aa9ca0)" style="fill: none; stroke: #e7ecef; stroke-width: 0.7; stroke-linecap: square"/>
     </g>
     <g id="line2d_4">
      <g>
       <use xlink:href="#mea6740bc42" x="182.993311" y="295.2" style="fill: #52616d; stroke: #52616d; stroke-width: 0.8"/>
      </g>
     </g>
     <g id="text_2">
      <text style="font-size: 11px; font-family: 'DejaVu Sans'; text-anchor: middle; fill: #52616d" x="182.993311" y="310.558281" transform="rotate(-0 182.993311 310.558281)">50%</text>
     </g>
    </g>
    <g id="xtick_3">
     <g id="line2d_5">
      <path d="M 281.314623 295.2 
L 281.314623 54 
" clip-path="url(#p87c5aa9ca0)" style="fill: none; stroke: #e7ecef; stroke-width: 0.7; stroke-linecap: square"/>
     </g>
     <g id="line2d_6">
      <g>
       <use xlink:href="#mea6740bc42" x="281.314623" y="295.2" style="fill: #52616d; stroke: #52616d; stroke-width: 0.8"/>
      </g>
     </g>
     <g id="text_3">
      <text style="font-size: 11px; font-family: 'DejaVu Sans'; text-anchor: middle; fill: #52616d" x="281.314623" y="310.558281" transform="rotate(-0 281.314623 310.558281)">100%</text>
     </g>
    </g>
    <g id="xtick_4">
     <g id="line2d_7">
      <path d="M 379.635934 295.2 
L 379.635934 54 
" clip-path="url(#p87c5aa9ca0)" style="fill: none; stroke: #e7ecef; stroke-width: 0.7; stroke-linecap: square"/>
     </g>
     <g id="line2d_8">
      <g>
       <use xlink:href="#mea6740bc42" x="379.635934" y="295.2" style="fill: #52616d; stroke: #52616d; stroke-width: 0.8"/>
      </g>
     </g>
     <g id="text_4">
      <text style="font-size: 11px; font-family: 'DejaVu Sans'; text-anchor: middle; fill: #52616d" x="379.635934" y="310.558281" transform="rotate(-0 379.635934 310.558281)">150%</text>
     </g>
    </g>
    <g id="xtick_5">
     <g id="line2d_9">
      <path d="M 477.957246 295.2 
L 477.957246 54 
" clip-path="url(#p87c5aa9ca0)" style="fill: none; stroke: #e7ecef; stroke-width: 0.7; stroke-linecap: square"/>
     </g>
     <g id="line2d_10">
      <g>
       <use xlink:href="#mea6740bc42" x="477.957246" y="295.2" style="fill: #52616d; stroke: #52616d; stroke-width: 0.8"/>
      </g>
     </g>
     <g id="text_5">
      <text style="font-size: 11px; font-family: 'DejaVu Sans'; text-anchor: middle; fill: #52616d" x="477.957246" y="310.558281" transform="rotate(-0 477.957246 310.558281)">200%</text>
     </g>
    </g>
    <g id="xtick_6">
     <g id="line2d_11">
      <path d="M 576.278557 295.2 
L 576.278557 54 
" clip-path="url(#p87c5aa9ca0)" style="fill: none; stroke: #e7ecef; stroke-width: 0.7; stroke-linecap: square"/>
     </g>
     <g id="line2d_12">
      <g>
       <use xlink:href="#mea6740bc42" x="576.278557" y="295.2" style="fill: #52616d; stroke: #52616d; stroke-width: 0.8"/>
      </g>
     </g>
     <g id="text_6">
      <text style="font-size: 11px; font-family: 'DejaVu Sans'; text-anchor: middle; fill: #52616d" x="576.278557" y="310.558281" transform="rotate(-0 576.278557 310.558281)">250%</text>
     </g>
    </g>
    <g id="xtick_7">
     <g id="line2d_13">
      <path d="M 674.599869 295.2 
L 674.599869 54 
" clip-path="url(#p87c5aa9ca0)" style="fill: none; stroke: #e7ecef; stroke-width: 0.7; stroke-linecap: square"/>
     </g>
     <g id="line2d_14">
      <g>
       <use xlink:href="#mea6740bc42" x="674.599869" y="295.2" style="fill: #52616d; stroke: #52616d; stroke-width: 0.8"/>
      </g>
     </g>
     <g id="text_7">
      <text style="font-size: 11px; font-family: 'DejaVu Sans'; text-anchor: middle; fill: #52616d" x="674.599869" y="310.558281" transform="rotate(-0 674.599869 310.558281)">300%</text>
     </g>
    </g>
    <g id="text_8">
     <text style="font-size: 11px; font-family: 'DejaVu Sans'; text-anchor: middle; fill: #293949" x="384.552" y="331.204219" transform="rotate(-0 384.552 331.204219)">Additional distance relative to the old baseline</text>
    </g>
   </g>
   <g id="matplotlib.axis_2">
    <g id="ytick_1">
     <g id="line2d_15">
      <path d="M 84.672 295.2 
L 684.432 295.2 
" clip-path="url(#p87c5aa9ca0)" style="fill: none; stroke: #e7ecef; stroke-width: 0.7; stroke-linecap: square"/>
     </g>
     <g id="line2d_16">
      <defs>
       <path id="mbc6a781315" d="M 0 0 
L -3.5 0 
" style="stroke: #293949; stroke-width: 0.8"/>
      </defs>
      <g>
       <use xlink:href="#mbc6a781315" x="84.672" y="295.2" style="fill: #293949; stroke: #293949; stroke-width: 0.8"/>
      </g>
     </g>
     <g id="text_9">
      <text style="font-size: 11px; font-family: 'DejaVu Sans'; text-anchor: end; fill: #293949" x="77.672" y="299.379141" transform="rotate(-0 77.672 299.379141)">0%</text>
     </g>
    </g>
    <g id="ytick_2">
     <g id="line2d_17">
      <path d="M 84.672 256.914286 
L 684.432 256.914286 
" clip-path="url(#p87c5aa9ca0)" style="fill: none; stroke: #e7ecef; stroke-width: 0.7; stroke-linecap: square"/>
     </g>
     <g id="line2d_18">
      <g>
       <use xlink:href="#mbc6a781315" x="84.672" y="256.914286" style="fill: #293949; stroke: #293949; stroke-width: 0.8"/>
      </g>
     </g>
     <g id="text_10">
      <text style="font-size: 11px; font-family: 'DejaVu Sans'; text-anchor: end; fill: #293949" x="77.672" y="261.093426" transform="rotate(-0 77.672 261.093426)">50%</text>
     </g>
    </g>
    <g id="ytick_3">
     <g id="line2d_19">
      <path d="M 84.672 218.628571 
L 684.432 218.628571 
" clip-path="url(#p87c5aa9ca0)" style="fill: none; stroke: #e7ecef; stroke-width: 0.7; stroke-linecap: square"/>
     </g>
     <g id="line2d_20">
      <g>
       <use xlink:href="#mbc6a781315" x="84.672" y="218.628571" style="fill: #293949; stroke: #293949; stroke-width: 0.8"/>
      </g>
     </g>
     <g id="text_11">
      <text style="font-size: 11px; font-family: 'DejaVu Sans'; text-anchor: end; fill: #293949" x="77.672" y="222.807712" transform="rotate(-0 77.672 222.807712)">100%</text>
     </g>
    </g>
    <g id="ytick_4">
     <g id="line2d_21">
      <path d="M 84.672 180.342857 
L 684.432 180.342857 
" clip-path="url(#p87c5aa9ca0)" style="fill: none; stroke: #e7ecef; stroke-width: 0.7; stroke-linecap: square"/>
     </g>
     <g id="line2d_22">
      <g>
       <use xlink:href="#mbc6a781315" x="84.672" y="180.342857" style="fill: #293949; stroke: #293949; stroke-width: 0.8"/>
      </g>
     </g>
     <g id="text_12">
      <text style="font-size: 11px; font-family: 'DejaVu Sans'; text-anchor: end; fill: #293949" x="77.672" y="184.521998" transform="rotate(-0 77.672 184.521998)">150%</text>
     </g>
    </g>
    <g id="ytick_5">
     <g id="line2d_23">
      <path d="M 84.672 142.057143 
L 684.432 142.057143 
" clip-path="url(#p87c5aa9ca0)" style="fill: none; stroke: #e7ecef; stroke-width: 0.7; stroke-linecap: square"/>
     </g>
     <g id="line2d_24">
      <g>
       <use xlink:href="#mbc6a781315" x="84.672" y="142.057143" style="fill: #293949; stroke: #293949; stroke-width: 0.8"/>
      </g>
     </g>
     <g id="text_13">
      <text style="font-size: 11px; font-family: 'DejaVu Sans'; text-anchor: end; fill: #293949" x="77.672" y="146.236283" transform="rotate(-0 77.672 146.236283)">200%</text>
     </g>
    </g>
    <g id="ytick_6">
     <g id="line2d_25">
      <path d="M 84.672 103.771429 
L 684.432 103.771429 
" clip-path="url(#p87c5aa9ca0)" style="fill: none; stroke: #e7ecef; stroke-width: 0.7; stroke-linecap: square"/>
     </g>
     <g id="line2d_26">
      <g>
       <use xlink:href="#mbc6a781315" x="84.672" y="103.771429" style="fill: #293949; stroke: #293949; stroke-width: 0.8"/>
      </g>
     </g>
     <g id="text_14">
      <text style="font-size: 11px; font-family: 'DejaVu Sans'; text-anchor: end; fill: #293949" x="77.672" y="107.950569" transform="rotate(-0 77.672 107.950569)">250%</text>
     </g>
    </g>
    <g id="ytick_7">
     <g id="line2d_27">
      <path d="M 84.672 65.485714 
L 684.432 65.485714 
" clip-path="url(#p87c5aa9ca0)" style="fill: none; stroke: #e7ecef; stroke-width: 0.7; stroke-linecap: square"/>
     </g>
     <g id="line2d_28">
      <g>
       <use xlink:href="#mbc6a781315" x="84.672" y="65.485714" style="fill: #293949; stroke: #293949; stroke-width: 0.8"/>
      </g>
     </g>
     <g id="text_15">
      <text style="font-size: 11px; font-family: 'DejaVu Sans'; text-anchor: end; fill: #293949" x="77.672" y="69.664855" transform="rotate(-0 77.672 69.664855)">300%</text>
     </g>
    </g>
    <g id="text_16">
     <text style="font-size: 11px; font-family: 'DejaVu Sans'; text-anchor: middle; fill: #293949" x="33.936375" y="174.6" transform="rotate(-90 33.936375 174.6)">Total impact relative to the old baseline</text>
    </g>
   </g>
   <g id="line2d_29">
    <path d="M 84.672 276.057143 
L 674.599869 218.628571 
L 674.599869 218.628571 
" clip-path="url(#p87c5aa9ca0)" style="fill: none; stroke: #147d92; stroke-width: 2.6; stroke-linecap: square"/>
   </g>
   <g id="line2d_30">
    <path d="M 84.672 256.914286 
L 674.599869 142.057143 
L 674.599869 142.057143 
" clip-path="url(#p87c5aa9ca0)" style="fill: none; stroke-dasharray: 9.62,4.16; stroke-dashoffset: 0; stroke: #db9c36; stroke-width: 2.6"/>
   </g>
   <g id="line2d_31">
    <path d="M 84.672 237.771429 
L 674.599869 65.485714 
L 674.599869 65.485714 
" clip-path="url(#p87c5aa9ca0)" style="fill: none; stroke-dasharray: 16.64,4.16,2.6,4.16; stroke-dashoffset: 0; stroke: #705890; stroke-width: 2.6"/>
   </g>
   <g id="line2d_32">
    <path d="M 84.672 218.628571 
L 684.432 218.628571 
" clip-path="url(#p87c5aa9ca0)" style="fill: none; stroke-dasharray: 1.5,2.475; stroke-dashoffset: 0; stroke: #243b4c; stroke-width: 1.5"/>
   </g>
   <g id="patch_3">
    <path d="M 84.672 295.2 
L 84.672 54 
" style="fill: none; stroke: #c6cfd5; stroke-width: 0.8; stroke-linejoin: miter; stroke-linecap: square"/>
   </g>
   <g id="patch_4">
    <path d="M 84.672 295.2 
L 684.432 295.2 
" style="fill: none; stroke: #c6cfd5; stroke-width: 0.8; stroke-linejoin: miter; stroke-linecap: square"/>
   </g>
   <g id="text_17">
    <text style="font-size: 10px; font-family: 'DejaVu Sans'; text-anchor: end; fill: #182b3a" x="654.935607" y="213.268571" transform="rotate(-0 654.935607 213.268571)">Old total impact</text>
   </g>
   <g id="text_18">
    <text style="font-weight: 700; font-size: 15px; font-family: 'DejaVu Sans'; text-anchor: start; fill: #182b3a" x="84.672" y="36" transform="rotate(-0 84.672 36)">The per-km advantage determines the break-even point</text>
   </g>
   <g id="PathCollection_1">
    <defs>
     <path id="mef8322f9c3" d="M 0 3 
C 0.795609 3 1.55874 2.683901 2.12132 2.12132 
C 2.683901 1.55874 3 0.795609 3 0 
C 3 -0.795609 2.683901 -1.55874 2.12132 -2.12132 
C 1.55874 -2.683901 0.795609 -3 0 -3 
C -0.795609 -3 -1.55874 -2.683901 -2.12132 -2.12132 
C -2.683901 -1.55874 -3 -0.795609 -3 0 
C -3 0.795609 -2.683901 1.55874 -2.12132 2.12132 
C -1.55874 2.683901 -0.795609 3 0 3 
z
" style="stroke: #147d92"/>
    </defs>
    <g clip-path="url(#p87c5aa9ca0)">
     <use xlink:href="#mef8322f9c3" x="674.599869" y="218.628571" style="fill: #147d92; stroke: #147d92"/>
    </g>
   </g>
   <g id="PathCollection_2">
    <defs>
     <path id="m604c9ff703" d="M 0 3 
C 0.795609 3 1.55874 2.683901 2.12132 2.12132 
C 2.683901 1.55874 3 0.795609 3 0 
C 3 -0.795609 2.683901 -1.55874 2.12132 -2.12132 
C 1.55874 -2.683901 0.795609 -3 0 -3 
C -0.795609 -3 -1.55874 -2.683901 -2.12132 -2.12132 
C -2.683901 -1.55874 -3 -0.795609 -3 0 
C -3 0.795609 -2.683901 1.55874 -2.12132 2.12132 
C -1.55874 2.683901 -0.795609 3 0 3 
z
" style="stroke: #db9c36"/>
    </defs>
    <g clip-path="url(#p87c5aa9ca0)">
     <use xlink:href="#m604c9ff703" x="281.314623" y="218.628571" style="fill: #db9c36; stroke: #db9c36"/>
    </g>
   </g>
   <g id="PathCollection_3">
    <defs>
     <path id="m7474938846" d="M 0 3 
C 0.795609 3 1.55874 2.683901 2.12132 2.12132 
C 2.683901 1.55874 3 0.795609 3 0 
C 3 -0.795609 2.683901 -1.55874 2.12132 -2.12132 
C 1.55874 -2.683901 0.795609 -3 0 -3 
C -0.795609 -3 -1.55874 -2.683901 -2.12132 -2.12132 
C -2.683901 -1.55874 -3 -0.795609 -3 0 
C -3 0.795609 -2.683901 1.55874 -2.12132 2.12132 
C -1.55874 2.683901 -0.795609 3 0 3 
z
" style="stroke: #705890"/>
    </defs>
    <g clip-path="url(#p87c5aa9ca0)">
     <use xlink:href="#m7474938846" x="150.219541" y="218.628571" style="fill: #705890; stroke: #705890"/>
    </g>
   </g>
   <g id="legend_1">
    <g id="line2d_33">
     <path d="M 92.772 65.788594 
L 101.772 65.788594 
L 110.772 65.788594 
" style="fill: none; stroke: #147d92; stroke-width: 2.6; stroke-linecap: square"/>
    </g>
    <g id="text_19">
     <text style="font-size: 9px; font-family: 'DejaVu Sans'; text-anchor: start; fill: #182b3a" x="117.972" y="68.938594" transform="rotate(-0 117.972 68.938594)">New per-km impact = 25% of old</text>
    </g>
    <g id="line2d_34">
     <path d="M 92.772 78.998906 
L 101.772 78.998906 
L 110.772 78.998906 
" style="fill: none; stroke-dasharray: 9.62,4.16; stroke-dashoffset: 0; stroke: #db9c36; stroke-width: 2.6"/>
    </g>
    <g id="text_20">
     <text style="font-size: 9px; font-family: 'DejaVu Sans'; text-anchor: start; fill: #182b3a" x="117.972" y="82.148906" transform="rotate(-0 117.972 82.148906)">New per-km impact = 50% of old</text>
    </g>
    <g id="line2d_35">
     <path d="M 92.772 92.209219 
L 101.772 92.209219 
L 110.772 92.209219 
" style="fill: none; stroke-dasharray: 16.64,4.16,2.6,4.16; stroke-dashoffset: 0; stroke: #705890; stroke-width: 2.6"/>
    </g>
    <g id="text_21">
     <text style="font-size: 9px; font-family: 'DejaVu Sans'; text-anchor: start; fill: #182b3a" x="117.972" y="95.359219" transform="rotate(-0 117.972 95.359219)">New per-km impact = 75% of old</text>
    </g>
   </g>
  </g>
  <g id="text_22">
   <text style="font-size: 9px; font-family: 'DejaVu Sans'; text-anchor: start; fill: #52616d" x="14.112" y="354.24" transform="rotate(-0 14.112 354.24)">Accounting sensitivity: total impact ratio = intensity ratio x distance multiplier. Ratios are hypothetical.</text>
  </g>
 </g>
 <defs>
  <clipPath id="p87c5aa9ca0">
   <rect x="84.672" y="54" width="599.76" height="241.2"/>
  </clipPath>
 </defs>
</svg>
